<?xml version="1.0" encoding="UTF-8"?>
<svg version="1.1" xmlns="http://www.w3.org/2000/svg" width="39" height="53">
<path d="M0 0 C12.87 0 25.74 0 39 0 C39 17.49 39 34.98 39 53 C26.13 53 13.26 53 0 53 C0 35.51 0 18.02 0 0 Z " fill="#EF8030" transform="translate(0,0)"/>
<path d="M0 0 C12.87 0 25.74 0 39 0 C39 1.32 39 2.64 39 4 C37.80375 4.474375 36.6075 4.94875 35.375 5.4375 C30.11587804 7.74413244 25.45125928 10.80990715 20.69873047 14.00170898 C16.19597672 17 16.19597672 17 14 17 C14.33 13.04 14.66 9.08 15 5 C11.53856024 5.35195143 11.53856024 5.35195143 8 7 C6.37660697 9.63974478 5.78601724 12.43091816 5.125 15.4375 C4.92430908 16.25210693 4.72361816 17.06671387 4.5168457 17.90600586 C2.37118575 26.96016993 1.84790979 35.72249746 2 45 C2.66 45.33 3.32 45.66 4 46 C5.32 42.7 6.64 39.4 8 36 C12.1283647 36 13.48226808 36.5168729 17.02734375 38.37109375 C17.98447266 38.86287109 18.94160156 39.35464844 19.92773438 39.86132812 C20.92095703 40.38146484 21.91417969 40.90160156 22.9375 41.4375 C24.90203139 42.46263983 26.86939297 43.48237832 28.83984375 44.49609375 C29.70988037 44.95169678 30.57991699 45.4072998 31.47631836 45.87670898 C33.99765048 46.99895423 36.28200404 47.57122768 39 48 C39 49.65 39 51.3 39 53 C26.13 53 13.26 53 0 53 C0 35.51 0 18.02 0 0 Z " fill="#E6E3E1" transform="translate(0,0)"/>
<path d="M0 0 C0.33 0 0.66 0 1 0 C1 13.2 1 26.4 1 40 C-1 39 -1 39 -1.78125 37.2109375 C-3.46704789 34.15272723 -5.69428532 32.68589867 -8.5 30.625 C-9.02883789 30.23578369 -9.55767578 29.84656738 -10.10253906 29.44555664 C-14.88324393 25.97732835 -19.85922913 22.90021365 -25 20 C-22.59992007 17.28997597 -20.10063074 15.91612554 -16.875 14.3125 C-10.19018356 10.76146869 -4.23236947 6.34855421 0 0 Z " fill="#E6E1DD" transform="translate(38,7)"/>
<path d="M0 0 C0.33 0 0.66 0 1 0 C1.04898438 0.99902344 1.09796875 1.99804688 1.1484375 3.02734375 C1.22320312 4.31769531 1.29796875 5.60804687 1.375 6.9375 C1.44460937 8.22527344 1.51421875 9.51304688 1.5859375 10.83984375 C1.72257813 11.88269531 1.85921875 12.92554688 2 14 C2.66 14.33 3.32 14.66 4 15 C5.32 11.7 6.64 8.4 8 5 C12.1283647 5 13.48226808 5.5168729 17.02734375 7.37109375 C17.98447266 7.86287109 18.94160156 8.35464844 19.92773438 8.86132812 C21.41756836 9.6415332 21.41756836 9.6415332 22.9375 10.4375 C24.90203139 11.46263983 26.86939297 12.48237832 28.83984375 13.49609375 C30.14489868 14.17949829 30.14489868 14.17949829 31.47631836 14.87670898 C33.99765048 15.99895423 36.28200404 16.57122768 39 17 C39 18.65 39 20.3 39 22 C26.13 22 13.26 22 0 22 C0 14.74 0 7.48 0 0 Z " fill="#E6E4E3" transform="translate(0,31)"/>
<path d="M0 0 C1.11826172 0.00322266 2.23652344 0.00644531 3.38867188 0.00976562 C4.55591797 0.01814453 5.72316406 0.02652344 6.92578125 0.03515625 C8.10462891 0.03966797 9.28347656 0.04417969 10.49804688 0.04882812 C13.41150914 0.06062352 16.32486988 0.07708355 19.23828125 0.09765625 C17.05580936 2.28012814 15.0012132 3.04637545 12.18603516 4.20556641 C8.88057347 5.71949935 5.93480717 7.75866941 2.92578125 9.78515625 C-3.49950945 14.09765625 -3.49950945 14.09765625 -5.76171875 14.09765625 C-5.43171875 10.13765625 -5.10171875 6.17765625 -4.76171875 2.09765625 C-6.08171875 1.76765625 -7.40171875 1.43765625 -8.76171875 1.09765625 C-5.58384334 0.03836445 -3.33582932 -0.01693314 0 0 Z " fill="#E6E3E1" transform="translate(19.76171875,2.90234375)"/>
<path d="M0 0 C12.87 0 25.74 0 39 0 C39 0.99 39 1.98 39 3 C26.13 3 13.26 3 0 3 C0 2.01 0 1.02 0 0 Z " fill="#0E0E0E" transform="translate(0,0)"/>
</svg>
